<svg xmlns="http://www.w3.org/2000/svg" enable-background="new 0 0 24 24" viewBox="0 0 24 24"><path d="M12.607,7.501H10V14.5h0.983v-2.834v-0.002h1.624c0.669,0,1.232-0.198,1.687-0.596l0.004-0.003C14.726,10.724,15,10.198,15,9.607c0-0.008,0-0.016,0-0.023c0.009-0.563-0.248-1.101-0.706-1.478l0.003,0.003C13.862,7.73,13.292,7.5,12.669,7.5C12.647,7.5,12.625,7.501,12.607,7.501z M13.602,8.734c0.252,0.225,0.395,0.533,0.395,0.855c0,0.323-0.143,0.631-0.395,0.856c-0.255,0.24-0.608,0.372-0.973,0.362h-1.648V8.363h1.645c0.016-0.001,0.032-0.001,0.048-0.001C13.034,8.362,13.361,8.504,13.602,8.734z"/><polygon points="6.811 8.543 6.811 8.543 6.814 8.546"/><path d="M0.435,13.296l0.011,0.022C1.131,14.616,2.494,15.5,4.064,15.5c0.006,0,0.012,0,0.017,0c1.101,0,2.029-0.354,2.705-0.966C7.556,13.838,8,12.808,8,11.592c0-0.273-0.023-0.544-0.07-0.813H4.081v1.54h2.204c-0.091,0.497-0.385,0.937-0.814,1.217c-0.367,0.243-0.839,0.381-1.39,0.381H4.08c-1.055-0.007-1.952-0.685-2.288-1.645c-0.083-0.241-0.13-0.501-0.13-0.771c0-0.274,0.047-0.538,0.128-0.766l0.005-0.017c0.33-0.946,1.228-1.626,2.286-1.633c0.013,0,0.027,0,0.04,0c0.59,0,1.127,0.228,1.526,0.6l1.164-1.142c-0.706-0.647-1.646-1.042-2.68-1.042c-0.017,0-0.035,0-0.05,0H4.08c-0.006,0-0.01,0-0.016,0c-1.569,0-2.932,0.884-3.628,2.203C0.158,10.243,0,10.853,0,11.501C0,12.156,0.161,12.774,0.435,13.296z"/><polygon points="22.978 9.501 21.53 12.99 21.51 12.99 20.02 9.501 19 9.501 21.061 14.05 19.898 16.5 20.866 16.5 24 9.501"/><path d="M19,14.347v-2.893c0-0.606-0.181-1.084-0.543-1.432c-0.363-0.348-0.858-0.522-1.484-0.522c-0.805,0-1.413,0.307-1.823,0.92l0.747,0.488c0.275-0.415,0.65-0.623,1.124-0.623c0.003,0,0.006,0,0.009,0c0.313,0,0.598,0.123,0.808,0.322l0.001,0.001c0.214,0.187,0.349,0.462,0.349,0.768c0,0.004,0,0.008,0,0.011v0.201c-0.325-0.191-0.74-0.287-1.243-0.287c-0.59,0.001-1.062,0.144-1.415,0.431C15.177,12.02,15,12.405,15,12.89c0,0.011,0,0.022,0,0.033c0,0.444,0.193,0.842,0.502,1.117c0.336,0.307,0.752,0.46,1.25,0.46c0.582,0,1.049-0.268,1.4-0.805h0.037v0.652H19z M17.769,13.303c-0.253,0.262-0.596,0.411-0.953,0.412c-0.239,0.004-0.472-0.077-0.659-0.23l-0.002-0.001c-0.17-0.131-0.28-0.336-0.28-0.567c0-0.002,0-0.005,0-0.007c0-0.256,0.116-0.469,0.348-0.643c0.23-0.173,0.517-0.26,0.862-0.26c0.473,0,0.841,0.109,1.106,0.329c0,0.001,0,0.003,0,0.004C18.191,12.72,18.029,13.063,17.769,13.303z"/></svg>